<svg width="181" height="48" viewBox="0 0 181 48" xmlns="http://www.w3.org/2000/svg">
    <path d="M9.94 14.7962L40.26 21.1279L30.4349 25.5585L33.5004 36.5432L9.94 14.7962Z" fill="#FFFFFF"/>
    <path d="M33.2654 7.70419L24.7447 40.8427L20.2838 30.5482L8.82697 31.6526L33.2654 7.70419Z" fill="#BBBBBB"/>
    <path d="M42.5295 37.8257C46.1138 33.0534 47.7598 27.1017 47.1367 21.1659C46.5137 15.2301 43.6678 9.74982
     39.1707 5.82582C34.6736 1.90181 28.8583 -0.175326 22.8928 0.0115926C16.9273 0.198511 11.2535 2.63564 7.01083 
     6.83349C2.76819 11.0313 0.270989 16.679 0.0207768 22.6422C-0.229436 28.6053 1.78587 34.4423 5.66193 38.9808C9.538 
     43.5194 14.9877 46.4232 20.9166 47.1092C26.8454 47.7952 32.8143 46.2125 37.6243 42.6791L36.2899 40.8625C31.9386 
     44.059 26.539 45.4907 21.1757 44.8701C15.8123 44.2496 10.8823 41.6227 7.37594 37.517C3.86956 33.4114 2.04647 
     28.1311 2.27281 22.7367C2.49916 17.3422 4.75819 12.2332 8.59618 8.43576C12.4342 4.63828 17.5669 2.4336 22.9634 
     2.26451C28.3599 2.09541 33.6205 3.97444 37.6888 7.52419C41.757 11.0739 44.3314 16.0315 44.895 21.4012C45.4586 
     26.7708 43.9697 32.1549 40.7272 36.472L42.5295 37.8257Z" fill="#FFFFFF"/>
    <path d="M65.8774 18.7909C65.8774 17.8562 65.7491 17.1689 65.4926 16.7291C65.236 16.2709 64.7228 16.0419 63.9531 16.0419H63.6782V15.2172H71.1555C74.8575 
    15.2172 77.6707 16.0052 79.595 17.5813C81.5376 19.1391 82.509 21.3383 82.509 24.1789C82.509 25.9933 82.0966 27.5969 81.2719 28.9897C80.4655 30.3642 
    79.256 31.4363 77.6432 32.206C76.0488 32.9758 74.1245 33.3606 71.8703 33.3606H65.8774V18.7909ZM71.7878 32.261C73.0707 32.261 74.2069 31.9403 
    75.1966 31.2989C76.2046 30.6574 76.9834 29.7319 77.5332 28.5224C78.1014 27.3128 78.3854 25.9016 78.3854 24.2889C78.3854 22.6945 78.1014 21.3016 
    77.5332 20.1104C76.9834 18.9008 76.2046 17.9662 75.1966 17.3064C74.1886 16.6466 73.034 16.3168 71.7328 16.3168H71.5129C70.9081 16.3168 70.4225 
    16.3534 70.0559 16.4267L69.4511 16.5092V32.0686L70.0559 32.1786C70.4408 32.2335 70.9264 32.261 71.5129 32.261H71.7878ZM90.8475 33.6355C89.5829 
    33.6355 88.4742 33.3423 87.5212 32.7558C86.5682 32.1694 85.8259 31.3722 85.2945 30.3642C84.7813 29.3379 84.5247 28.1833 84.5247 26.9004C84.5247 
    25.471 84.7813 24.2522 85.2945 23.2443C85.8259 22.2363 86.5499 21.4757 87.4662 20.9626C88.3825 20.4311 89.418 20.1654 90.5726 20.1654C91.7088 
    20.1654 92.7351 20.3945 93.6515 20.8526C94.5678 21.3108 95.2917 21.9614 95.8232 22.8044C96.3547 23.6291 96.6204 24.5821 96.6204 25.6634C96.6204 
    26.0116 96.6021 26.4056 96.5654 26.8455L96.5104 27.3953H88.2359C88.2359 29.1363 88.5017 30.41 89.0331 31.2164C89.5646 32.0044 90.3068 32.3985 91.2598 
    32.3985C92.1395 32.3985 92.8726 32.206 93.459 31.8212C94.0638 31.418 94.6411 30.8499 95.1909 30.1168L96.0431 30.7491C95.5116 31.5738 94.8427 32.261 
    94.0363 32.8108C93.2483 33.3606 92.1853 33.6355 90.8475 33.6355ZM92.9092 26.1582C92.9092 24.4355 92.7076 23.2168 92.3045 22.502C91.9013 21.769 91.324 
    21.4024 90.5726 21.4024C89.8762 21.4024 89.308 21.7781 88.8682 22.5295C88.4467 23.2626 88.2359 24.4722 88.2359 26.1582H92.9092ZM99.2537 18.7909C99.2537 
    17.8562 99.1254 17.1689 98.8688 16.7291C98.6122 16.2709 98.0991 16.0419 97.3293 16.0419H97.0544V15.2172H100.353C101.013 15.2172 101.517 15.3271 101.865 
    15.547C102.213 15.767 102.461 16.1335 102.607 16.6466C102.754 17.1415 102.827 17.8562 102.827 18.7909V33.3606H99.2537V18.7909ZM108.54 18.9558C107.88 
    18.9558 107.367 18.7542 107.001 18.351C106.652 17.9478 106.478 17.453 106.478 16.8666C106.478 16.3901 106.616 16.0144 106.891 15.7395C107.184 15.4646 
    107.551 15.3271 107.99 15.3271C108.65 15.3271 109.154 15.5287 109.502 15.9319C109.869 16.3351 110.052 16.8299 110.052 17.4164C110.052 17.8929 109.905 
    18.2686 109.612 18.5435C109.337 18.8184 108.98 18.9558 108.54 18.9558ZM106.753 24.014C106.753 23.0793 106.625 22.3921 106.368 21.9522C106.112 21.4941 
    105.599 21.265 104.829 21.265H104.554V20.4403H107.853C108.513 20.4403 109.017 20.5502 109.365 20.7702C109.713 20.9901 109.96 21.3566 110.107 21.8698C110.254 
    22.3646 110.327 23.0793 110.327 24.014V33.3606H106.753V24.014ZM114.027 23.6016C113.532 22.5753 113.111 21.8606 112.763 21.4574C112.414 21.0359 112.02 20.8068 
    111.581 20.7702V20.2204L112.598 20.1654C113.826 20.1654 114.852 20.4036 115.677 20.8801C116.52 21.3566 117.253 22.2638 117.876 23.6016L120.295 28.8797L124.034 
    20.4403H125.518L119.663 33.6355H118.673L114.027 23.6016ZM130.992 33.6355C129.507 33.6355 128.353 33.3056 127.528 32.6459C126.722 31.9678 126.319 31.0606 126.319 
    29.9244C126.319 29.008 126.529 28.2475 126.951 27.6427C127.391 27.0379 128.151 26.5797 129.232 26.2682C130.314 25.9566 131.817 25.8008 133.741 25.8008H134.153C134.153 24.2064 
    133.933 23.0793 133.493 22.4196C133.054 21.7415 132.403 21.4024 131.542 21.4024C130.827 21.4024 130.24 21.5765 129.782 21.9247C129.324 22.2729 128.994 22.9235 128.793 23.8765H127.281C127.281 
    23.2534 127.317 22.722 127.391 22.2821C127.482 21.8423 127.675 21.4574 127.968 21.1275C128.536 20.4861 129.911 20.1654 132.091 20.1654C133.924 20.1654 135.317 20.651 136.27 21.6223C137.241 22.5753 
    137.727 24.014 137.727 25.9383V33.3606H135.39L134.428 32.1236H134.291C134.126 32.3801 133.869 32.6367 133.521 32.8933C132.898 33.3881 132.055 33.6355 130.992 33.6355ZM131.817 32.261C132.201 32.261 
    132.531 32.1877 132.806 32.0411C133.081 31.8762 133.347 31.6562 133.603 31.3813C133.842 31.1248 134.025 30.8224 134.153 30.4742V27.0379H133.741C132.44 27.0379 131.496 27.2761 130.909 27.7526C130.323 
    28.2108 130.03 28.9347 130.03 29.9244C130.03 30.6758 130.185 31.2531 130.497 31.6562C130.809 32.0594 131.248 32.261 131.817 32.261ZM162.309 34.5977C160.33 34.5977 158.9 34.1395 158.02 33.2232C157.159 32.2885 156.728 30.7766 156.728 28.6873V18.9558L150.708 33.3606H149.801L142.434 18.406V33.3606H141.059V15.2172H144.413L151.065 28.7148L156.701 15.2172H160.302V28.6873C160.302 30.41 160.449 31.6746 160.742 32.4809C161.035 33.2873 161.557 33.7638 162.309 33.9104V34.5977ZM165.475 18.7909C165.475 17.8562 165.347 17.1689 165.091 16.7291C164.834 16.2709 164.321 16.0419 163.551 16.0419H163.276V15.2172H175.399C176.957 15.2172 177.736 15.9502 177.736 17.4164V19.753H176.911C176.911 18.6168 176.618 17.7829 176.032 17.2514C175.463 16.7199 174.611 16.4542 173.475 16.4542H169.049V23.3267H176.197V24.5638H169.049V32.1236H173.75C174.795 32.1236 175.665 31.8945 176.361 31.4363C177.058 30.9598 177.635 30.1443 178.093 28.9897L178.836 29.2646L178.038 31.4363C177.8 32.0961 177.516 32.5817 177.186 32.8933C176.856 33.2048 176.343 33.3606 175.647 33.3606H165.475V18.7909Z" fill="#FFFFFF"/>
</svg>
